<svg xmlns="http://www.w3.org/2000/svg" width="116" height="114" fill="#f58a07" xmlns:v="https://vecta.io/nano"><path d="M50.506 102.944L48.474 114l-4.116-.747c-.813-.149-1.423-.398-1.931-.747-.457-.349-.813-.747-.965-1.245-.203-.498-.203-.996-.102-1.544.102-.448.254-.847.457-1.096a2.57 2.57 0 0 1 .813-.647c.305-.149.66-.199 1.016-.249v-.1c-.356-.099-.711-.249-1.016-.547s-.559-.648-.711-1.096-.203-.946-.102-1.494.356-1.046.66-1.444a2.71 2.71 0 0 1 1.423-.847c.61-.149 1.372-.149 2.236 0l4.37.747zm-2.845 5.976l-2.286-.398c-.407-.05-.762-.05-1.067.05s-.61.249-.864.498-.356.498-.457.896c-.102.448 0 .847.305 1.245s.762.598 1.423.747l2.337.399.61-3.437zm.864-4.88l-2.439-.449c-.813-.149-1.423-.099-1.829.15a1.6 1.6 0 0 0-.762 1.046c-.051.348-.051.697.102.996.102.299.356.597.66.846a2.04 2.04 0 0 0 1.118.449l2.541.448.61-3.486zm-11.789-4.881c.762.299 1.372.747 1.778 1.345.407.548.66 1.195.711 1.942s-.102 1.494-.457 2.291-.813 1.444-1.372 1.892c-.559.498-1.22.797-1.88.897-.711.099-1.423 0-2.134-.299a4.95 4.95 0 0 1-1.219-.747c-.356-.299-.61-.697-.813-1.145s-.305-.947-.254-1.544c0-.598.203-1.196.508-1.893l.254-.548 6.301 2.59-.508 1.145-4.776-1.992c-.152.399-.254.797-.203 1.146.051.398.152.697.356.996a1.86 1.86 0 0 0 .914.697c.457.199.864.249 1.27.15.407-.05.762-.249 1.067-.498s.559-.598.711-.947l.407-.896c.203-.498.305-.996.305-1.444-.051-.449-.152-.847-.407-1.146a2.97 2.97 0 0 0-1.067-.797c-.305-.099-.559-.199-.864-.199-.254 0-.559 0-.762.1a2.62 2.62 0 0 0-.661.448l-1.372-.847c.305-.349.66-.647 1.118-.847s.915-.299 1.423-.249 1.067.149 1.626.398zm-14.481-.797l1.423.647c-.051.199-.102.398-.051.598 0 .199.102.448.203.648.152.199.356.448.61.597.406.249.762.399 1.169.399.356 0 .661-.15.864-.399.152-.249.203-.498.152-.747s-.254-.548-.61-.896l-.965-.996c-.559-.598-.864-1.145-.965-1.644s0-1.046.356-1.544c.305-.398.66-.697 1.169-.847.457-.149.965-.199 1.575-.05.559.1 1.118.349 1.728.747.813.548 1.321 1.145 1.575 1.793s.254 1.345-.102 2.042l-1.473-.697a1.64 1.64 0 0 0 .051-1.096c-.152-.349-.407-.648-.813-.946-.457-.299-.864-.448-1.27-.448s-.711.149-.864.398a.85.85 0 0 0-.152.697c.051.249.254.548.508.847l1.016 1.046c.559.598.864 1.145.965 1.694s-.051 1.046-.407 1.544c-.305.398-.66.697-1.118.846s-.965.15-1.474.05-1.067-.349-1.575-.697c-.762-.498-1.27-1.096-1.473-1.693-.305-.598-.305-1.245-.051-1.893zm-6.098.149l-1.219-1.145 5.64-5.727c.203-.249.356-.448.407-.598.051-.199.051-.349-.051-.498a.77.77 0 0 0-.305-.398c-.102-.1-.203-.149-.254-.199s-.152-.1-.203-.149l.762-1.195c.102.05.203.1.356.199s.356.249.508.398a3.29 3.29 0 0 1 .711.996 2.18 2.18 0 0 1 .152 1.145c-.051.398-.305.797-.661 1.145l-5.843 6.026zm-1.067-3.785l.915-.946 3.354 3.187-.915.946-3.353-3.187zm.255-13.894a3.75 3.75 0 0 1 .457 1.394 2.21 2.21 0 0 1-.254 1.295c-.203.399-.559.747-1.067 1.046-.406.249-.813.349-1.169.349a1.86 1.86 0 0 1-1.016-.299c-.305-.199-.61-.398-.864-.697l-.762-.897-.762-.996c-.203-.249-.356-.398-.508-.498s-.305-.05-.508.05h-.051c-.406.249-.661.548-.762.896s0 .797.254 1.245c.305.498.61.797.965.946s.711.199 1.067.149l.457 1.494a3.09 3.09 0 0 1-1.524-.1c-.457-.149-.864-.398-1.219-.697-.356-.349-.661-.697-.915-1.145l-.457-.996c-.102-.349-.152-.747-.152-1.145s.152-.797.356-1.145.61-.697 1.169-1.046l4.929-2.789.813 1.394-1.016.598.051.05c.254 0 .508 0 .813.1s.559.249.864.448a5.41 5.41 0 0 1 .813.996zm-1.372.349c-.254-.398-.508-.697-.813-.897a1.86 1.86 0 0 0-1.016-.299c-.356 0-.661.1-.965.249l-.965.548c.102 0 .203.1.305.199a4.07 4.07 0 0 1 .407.448c.152.149.254.349.406.498.102.149.254.299.305.398.203.249.406.498.61.647.203.199.457.299.661.349.254.05.508 0 .762-.149.356-.199.559-.498.559-.847.102-.349 0-.747-.254-1.145zm.102-10.658c.203.647.305 1.195.254 1.743 0 .498-.102.946-.305 1.345s-.406.697-.711.946l-1.016-1.145c.102-.15.254-.299.356-.548a2.96 2.96 0 0 0 .254-.797c.051-.299 0-.697-.152-1.096-.203-.598-.508-1.046-.915-1.345s-.965-.349-1.575-.149l-1.626.498.051.1c.203.05.457.1.711.199s.508.299.813.548.457.647.61 1.145c.203.647.254 1.245.102 1.843s-.457 1.145-.965 1.643-1.169.847-2.032 1.145c-.864.249-1.677.349-2.388.249s-1.321-.349-1.829-.747-.864-.946-1.067-1.594c-.152-.498-.203-.946-.152-1.295s.203-.647.356-.896a3.11 3.11 0 0 1 .457-.598l-.051-.1-1.321.398-.508-1.544 8.384-2.59c.711-.199 1.321-.249 1.88-.05s1.016.498 1.423.996.762.996.965 1.693zM9.4 71.967c-.152-.448-.356-.797-.711-1.046s-.711-.398-1.169-.398c-.457-.05-.965.05-1.524.199a3.53 3.53 0 0 0-1.372.697c-.356.299-.61.647-.762.996-.152.398-.152.797 0 1.245s.406.847.762 1.046c.356.249.762.349 1.219.398s.965-.05 1.473-.199a3.31 3.31 0 0 0 1.321-.697c.356-.299.61-.647.711-.996.203-.349.203-.747.051-1.245zm-.407-10.359a3.86 3.86 0 0 1-.356 2.191 3.15 3.15 0 0 1-1.423 1.494c-.61.398-1.372.598-2.286.697-.864.1-1.677 0-2.337-.299-.711-.249-1.27-.647-1.677-1.195s-.661-1.195-.762-1.992c-.051-.498 0-.946.102-1.395a2.97 2.97 0 0 1 .661-1.245c.305-.398.711-.697 1.27-.946.508-.249 1.169-.398 1.931-.498l.61-.05.61 6.673-1.27.1-.457-5.08c-.457.05-.813.149-1.118.349s-.559.498-.711.797a2.03 2.03 0 0 0-.203 1.145c.051.448.203.847.457 1.145s.559.548.965.697a2.58 2.58 0 0 0 1.219.149l.965-.1c.559-.05 1.067-.199 1.423-.448s.661-.548.864-.896c.152-.398.254-.797.203-1.295-.051-.299-.102-.598-.203-.847s-.254-.448-.457-.647c-.203-.149-.457-.299-.711-.349l.152-1.594c.457.1.915.249 1.27.548s.661.648.915 1.145.305 1.145.356 1.743zM3.658 53.49l5.081.598-.203 1.643L0 54.735l.203-1.544 1.372.149v-.1c-.406-.249-.762-.598-.965-1.046S.305 51.198.407 50.6a2.8 2.8 0 0 1 .559-1.444c.305-.398.711-.697 1.219-.847.508-.199 1.118-.249 1.829-.149l5.437.647-.203 1.644-5.284-.697c-.61-.05-1.118.05-1.524.299-.406.299-.61.697-.661 1.245a1.83 1.83 0 0 0 .152 1.046 2.41 2.41 0 0 0 .661.797 2.66 2.66 0 0 0 1.067.349zm7.673-10.707c-.254.747-.661 1.394-1.219 1.793-.559.448-1.219.697-1.931.797s-1.524 0-2.337-.299-1.524-.697-2.032-1.195-.864-1.096-1.016-1.793-.102-1.395.152-2.142c.203-.598.508-1.096.915-1.494s.864-.697 1.372-.847 1.067-.149 1.626-.05l-.508 1.494a1.92 1.92 0 0 0-1.169.249c-.356.199-.661.548-.813 1.046a2.1 2.1 0 0 0-.051 1.245c.102.398.356.747.711 1.096s.813.598 1.423.797 1.118.299 1.626.249.915-.149 1.27-.398.61-.598.762-1.046c.102-.299.152-.598.102-.847-.051-.299-.102-.548-.254-.747s-.356-.448-.61-.598l.508-1.494c.508.249.915.548 1.219.996a2.8 2.8 0 0 1 .559 1.444c0 .548-.051 1.145-.305 1.743zm5.335-4.631c-.152.199-.254.398-.407.548l-.356.349-.965-1.046c.203-.199.406-.448.508-.647s.152-.448.102-.647c-.051-.249-.203-.498-.457-.847l-.406-.448-9.095-1.693.915-1.494 6.859 1.494.051-.1-4.624-5.179.915-1.494 6.555 7.819c.305.349.508.747.661 1.096s.203.747.152 1.096-.203.797-.407 1.195zm4.929-12.202l-.813-.946.254-5.478v-1.494c0-.398-.051-.797-.152-1.096a2.74 2.74 0 0 0-.457-.847c-.254-.299-.559-.448-.864-.548a1.59 1.59 0 0 0-.965 0c-.305.1-.661.249-.915.498-.305.249-.508.548-.661.896-.102.299-.152.648-.051.996a2.46 2.46 0 0 0 .508.946l-1.219 1.096c-.457-.498-.762-1.046-.864-1.643s-.051-1.195.203-1.743a3.81 3.81 0 0 1 1.169-1.544c.559-.448 1.118-.747 1.728-.896s1.169-.15 1.727.05c.559.149 1.016.448 1.423.946.305.299.508.647.661 1.096.152.398.254.896.254 1.544l-.051 2.39-.152 3.088.051.05 3.862-3.337.965 1.096-5.64 4.88zm11.432-8.018c-.762.398-1.575.548-2.337.448s-1.524-.448-2.236-1.096c-.711-.598-1.372-1.444-1.931-2.54-.61-1.096-.965-2.042-1.067-2.988-.102-.896 0-1.693.305-2.39.356-.697.864-1.245 1.677-1.643.762-.398 1.524-.548 2.337-.448s1.524.448 2.236 1.046 1.372 1.444 1.931 2.49c.61 1.096.965 2.092 1.067 2.988.152.896.051 1.743-.305 2.39-.356.747-.915 1.295-1.677 1.743zm-.711-1.295c.66-.349 1.016-.946 1.067-1.843.051-.847-.305-1.892-.965-3.137-.457-.797-.915-1.444-1.423-1.942s-.965-.797-1.474-.896-.965-.05-1.423.199c-.661.349-1.016.946-1.067 1.843-.051.847.305 1.893.965 3.138.457.847.915 1.494 1.423 1.942.508.498.965.747 1.474.896.457.1.965.05 1.423-.199zm6.605-1.693l-.356-1.195 2.642-4.831c.305-.498.508-.996.661-1.345.152-.398.305-.747.356-1.046s.051-.647-.051-.946c-.102-.349-.254-.647-.508-.847s-.559-.349-.864-.398c-.356-.05-.711-.05-1.067.05-.406.1-.711.299-.965.498-.254.249-.406.548-.508.847s-.051.697.051 1.096l-1.575.448c-.203-.647-.203-1.295 0-1.843.152-.598.508-1.096.965-1.494s1.016-.697 1.728-.896a4.31 4.31 0 0 1 1.931-.1c.61.099 1.118.398 1.575.747a3.55 3.55 0 0 1 .915 1.444 3.37 3.37 0 0 1 .102 1.245c-.05.448-.203.946-.457 1.494l-1.067 2.141-1.575 2.839v.1l4.979-1.345.406 1.395-7.317 1.942zm13.821-2.39c-.864.05-1.626-.149-2.286-.598s-1.169-1.046-1.524-1.892-.559-1.892-.66-3.088c-.051-1.195.051-2.241.356-3.138S49.39 2.294 50 1.796s1.37-.747 2.234-.796 1.626.149 2.287.598 1.169 1.046 1.524 1.892.61 1.892.66 3.088c.051 1.245-.051 2.291-.356 3.138s-.762 1.544-1.321 2.042c-.661.498-1.372.747-2.287.797zm-.051-1.444c.762-.05 1.372-.448 1.778-1.195s.559-1.843.508-3.237c-.051-.946-.203-1.693-.407-2.341s-.559-1.096-.915-1.444c-.407-.299-.813-.448-1.321-.448-.762.05-1.372.448-1.778 1.195s-.559 1.843-.508 3.237c.051.946.203 1.743.406 2.341a3.74 3.74 0 0 0 .915 1.444c.356.348.813.448 1.321.448zm18.241-2.74l-.356 1.394-4.929-1.295.356-1.394 4.929 1.295zm5.487 9.014l.661-1.046 5.437-1.295 1.474-.399c.406-.1.762-.299 1.016-.448s.508-.398.66-.697c.203-.299.305-.647.305-.946 0-.349-.102-.647-.254-.896-.203-.299-.457-.548-.762-.747-.356-.199-.711-.349-1.067-.349s-.661.05-.965.199-.559.398-.762.747l-1.372-.847c.356-.598.813-.996 1.372-1.245s1.118-.349 1.778-.299c.61.05 1.219.249 1.829.647s1.067.847 1.372 1.345c.305.548.457 1.096.457 1.643a2.7 2.7 0 0 1-.508 1.594c-.203.349-.508.648-.864.896s-.813.498-1.423.697l-2.337.647-3.201.797-.051.05 4.37 2.689-.813 1.245-6.351-3.984zm11.076 8.417a3.91 3.91 0 0 1-1.118-2.042c-.102-.747 0-1.544.407-2.39s1.016-1.693 1.931-2.54c.864-.847 1.728-1.494 2.591-1.843.864-.398 1.677-.498 2.439-.398s1.474.498 2.083 1.096.965 1.295 1.118 2.042c.102.747 0 1.544-.406 2.39s-1.016 1.693-1.88 2.54-1.778 1.494-2.591 1.843c-.864.398-1.677.498-2.439.398-.813-.1-1.524-.498-2.134-1.096zm1.067-1.046c.559.548 1.22.697 2.083.498s1.778-.847 2.795-1.793c.66-.647 1.169-1.295 1.524-1.892.305-.598.457-1.146.457-1.644s-.203-.896-.559-1.295c-.559-.548-1.219-.697-2.083-.498s-1.778.847-2.795 1.793c-.66.647-1.169 1.295-1.524 1.893-.305.598-.457 1.145-.457 1.643 0 .548.203.946.559 1.295zm3.506 5.777l1.067-.647 5.437 1.145 1.524.249c.407.05.813.05 1.118 0a2.31 2.31 0 0 0 .915-.349c.305-.199.559-.448.711-.747s.203-.598.153-.946-.153-.647-.356-.996-.457-.598-.762-.747-.61-.249-.966-.199c-.355 0-.711.149-1.016.349l-.864-1.394c.61-.349 1.169-.548 1.83-.548a3.43 3.43 0 0 1 1.727.448c.559.299 1.016.747 1.372 1.345.406.598.61 1.195.66 1.793a3.25 3.25 0 0 1-.304 1.693c-.254.548-.661.946-1.169 1.245a4.7 4.7 0 0 1-1.169.448c-.407.099-.965.1-1.575 0-.609-.05-1.422-.199-2.388-.398l-3.252-.647-.051.05 2.744 4.283-1.27.747-4.116-6.175zm17.377 8.665l-10.72 3.984-.61-1.594 9.095-3.387v-.05l-2.642-1.892 1.524-.598 2.744 1.992.609 1.544zM116 52.246l-18.749 1.892-.152-1.444 18.749-1.892.152 1.444zm-3.963 13.048l-11.382-1.345.204-1.643 11.381 1.345-.203 1.643zm-12.906 4.83c.203-.747.61-1.395 1.118-1.843s1.168-.747 1.88-.896 1.524-.1 2.388.149 1.575.598 2.134 1.096.914 1.096 1.118 1.743.152 1.394-.051 2.141-.61 1.394-1.118 1.843-1.169.747-1.88.896-1.524.1-2.388-.149-1.575-.598-2.083-1.096a3.83 3.83 0 0 1-1.118-1.743c-.203-.647-.203-1.394 0-2.141zm1.372.398c-.153.498-.153.946.051 1.345s.457.747.863.996c.407.299.864.498 1.372.647s1.016.199 1.525.199c.508-.05.914-.149 1.27-.398s.61-.598.762-1.096.152-.946-.051-1.345c-.152-.398-.457-.747-.864-1.046s-.863-.498-1.371-.647-1.017-.199-1.525-.199c-.508.05-.914.149-1.27.448-.356.249-.61.598-.762 1.096zm.457 9.364l-4.471-2.39.813-1.444 7.57 3.984-.762 1.394-1.219-.647-.051.1c.305.398.457.797.508 1.295s-.101.996-.406 1.594c-.254.498-.61.896-1.067 1.145-.407.249-.915.398-1.423.398-.559 0-1.118-.199-1.728-.498l-4.827-2.54.813-1.444 4.624 2.44c.559.299 1.067.398 1.524.249.458-.1.813-.398 1.118-.896.204-.349.254-.648.254-.996s-.101-.647-.304-.946c-.255-.299-.559-.548-.966-.797zm-10.873 6.872a3.79 3.79 0 0 1 1.626-1.046c.61-.149 1.27-.149 1.982.05s1.423.598 2.083 1.195 1.219 1.245 1.474 1.892c.305.647.407 1.295.305 1.942a3.13 3.13 0 0 1-.813 1.693c-.356.398-.711.647-1.067.797s-.661.199-.965.15c-.305 0-.559-.05-.762-.1l-.051.05L97.1 96.12l-1.118 1.245-8.638-7.371L88.41 88.8l1.016.847.102-.1c-.051-.199-.152-.448-.203-.747s-.051-.598.051-.946.356-.697.711-1.096zm.813 1.195c-.305.349-.508.747-.508 1.145a2.81 2.81 0 0 0 .305 1.245c.254.398.559.847 1.016 1.195a3.94 3.94 0 0 0 1.372.797c.457.15.864.199 1.27.1s.762-.299 1.067-.647.508-.747.508-1.195a2.81 2.81 0 0 0-.305-1.245c-.254-.398-.559-.797-.965-1.145-.457-.349-.864-.647-1.321-.797s-.915-.199-1.321-.149c-.407.1-.762.349-1.118.697zm-8.587 5.977c.661-.448 1.321-.747 2.032-.797s1.372.05 2.032.398a5.15 5.15 0 0 1 1.778 1.544c.508.697.864 1.394 1.016 2.141.153.697.051 1.394-.203 2.042s-.711 1.195-1.372 1.693c-.66.448-1.321.747-2.032.797s-1.372-.1-2.032-.399a5.14 5.14 0 0 1-1.778-1.544c-.508-.697-.864-1.394-.965-2.141s-.051-1.394.203-2.042c.203-.697.661-1.245 1.321-1.693zm.813 1.096a2.17 2.17 0 0 0-.813 1.096c-.152.448-.102.847.051 1.295s.356.897.711 1.345a3.67 3.67 0 0 0 1.118 1.046 3 3 0 0 0 1.27.449c.457.049.864-.1 1.27-.449.407-.299.711-.647.813-1.096a2.44 2.44 0 0 0-.051-1.345c-.152-.448-.356-.896-.711-1.345a3.67 3.67 0 0 0-1.118-1.046c-.407-.249-.813-.398-1.27-.398-.406 0-.813.149-1.27.448zm-5.437 7.719l-2.083-4.582 1.524-.697 3.557 7.669-1.474.648-.559-1.245-.102.049c0 .498-.102.947-.407 1.345-.254.399-.711.747-1.27.996s-1.067.349-1.575.299-.965-.249-1.372-.548-.762-.797-1.067-1.444l-2.236-4.881 1.524-.697 2.185 4.681c.254.548.61.947 1.067 1.096.457.199.915.149 1.423-.05a1.73 1.73 0 0 0 .813-.647c.203-.249.305-.598.356-.946 0-.249-.102-.598-.305-1.046z"/></svg>